<svg xmlns="http://www.w3.org/2000/svg" xmlns:xlink="http://www.w3.org/1999/xlink" width="672" height="284pt" viewBox="0 0 504 284"><g id="graph0" class="graph" transform="scale(1 1) rotate(0) translate(4 280)"><title>dependencies</title><polygon fill="#fff" stroke="transparent" points="-4 4 -4 -280 500 -280 500 4 -4 4"/><text x="227.01" y="-42.4" font-family="Times-12" font-size="14" font-weight="bold" text-anchor="start">Legend</text><polygon fill="#ffffb3" stroke="transparent" points="14 -10 14 -30 34 -30 34 -10 14 -10"/><text x="37.63" y="-15.4" font-family="Times-12" font-size="14" text-anchor="start">Declarations</text><polygon fill="#8dd3c7" stroke="transparent" points="127 -10 127 -30 147 -30 147 -10 127 -10"/><text x="150.73" y="-15.4" font-family="Times-12" font-size="14" text-anchor="start">Module</text><polygon fill="#80b1d3" stroke="transparent" points="213 -10 213 -30 233 -30 233 -10 213 -10"/><text x="236.78" y="-15.4" font-family="Times-12" font-size="14" text-anchor="start">Bootstrap</text><polygon fill="#fdb462" stroke="transparent" points="310 -10 310 -30 330 -30 330 -10 310 -10"/><text x="333.67" y="-15.4" font-family="Times-12" font-size="14" text-anchor="start">Providers</text><polygon fill="#fb8072" stroke="transparent" points="406 -10 406 -30 426 -30 426 -10 406 -10"/><text x="429.73" y="-15.4" font-family="Times-12" font-size="14" text-anchor="start">Exports</text><g id="clust1" class="cluster"><title>cluster_AuthModule</title><polygon fill="none" stroke="#000" stroke-dasharray="1 5" points="173 -70 173 -268 323 -268 323 -70 173 -70"/></g><g id="clust4" class="cluster"><title>cluster_AuthModule_exports</title><polygon fill="none" stroke="#000" points="195 -208 195 -260 301 -260 301 -208 195 -208"/></g><g id="clust6" class="cluster"><title>cluster_AuthModule_providers</title><polygon fill="none" stroke="#000" points="181 -78 181 -130 315 -130 315 -78 181 -78"/></g><g id="node1" class="node"><title>AuthService</title><polygon fill="#fb8072" stroke="#000" points="292.98 -252 203.02 -252 203.02 -216 292.98 -216 292.98 -252"/><text x="248" y="-229.8" font-family="Times,serif" font-size="14" text-anchor="middle">AuthService</text></g><g id="node2" class="node"><title>AuthModule</title><polygon fill="#8dd3c7" stroke="#000" points="291.55 -187 288.55 -191 267.55 -191 264.55 -187 204.45 -187 204.45 -151 291.55 -151 291.55 -187"/><text x="248" y="-164.8" font-family="Times,serif" font-size="14" text-anchor="middle">AuthModule</text></g><g id="edge1" class="edge"><title>AuthModule-&gt;AuthService</title><path fill="none" stroke="#000" stroke-dasharray="5 2" d="M248,-187.11C248,-187.11 248,-205.99 248,-205.99"/><polygon fill="#000" stroke="#000" points="244.5 -205.99 248 -215.99 251.5 -205.99 244.5 -205.99"/></g><g id="node3" class="node"><title>AuthService</title><ellipse cx="248" cy="-104" fill="#fdb462" stroke="#000" rx="59.11" ry="18"/><text x="248" y="-99.8" font-family="Times,serif" font-size="14" text-anchor="middle">AuthService</text></g><g id="edge2" class="edge"><title>AuthService-&gt;AuthModule</title><path fill="none" stroke="#000" d="M248,-122.11C248,-122.11 248,-140.99 248,-140.99"/><polygon fill="#000" stroke="#000" points="244.5 -140.99 248 -150.99 251.5 -140.99 244.5 -140.99"/></g></g></svg>