<?xml version="1.0" encoding="UTF-8" standalone="no"?>
<!DOCTYPE svg PUBLIC "-//W3C//DTD SVG 1.1//EN"
 "http://www.w3.org/Graphics/SVG/1.1/DTD/svg11.dtd">
<!-- Generated by graphviz version 2.47.0 (20210316.0004)
 -->
<!-- Title: dependencies Pages: 1 -->
<svg width="504pt" height="211pt"
 viewBox="0.00 0.00 504.00 211.00" xmlns="http://www.w3.org/2000/svg" xmlns:xlink="http://www.w3.org/1999/xlink">
<g id="graph0" class="graph" transform="scale(1 1) rotate(0) translate(4 207)">
<title>dependencies</title>
<polygon fill="white" stroke="transparent" points="-4,4 -4,-207 500,-207 500,4 -4,4"/>
<text text-anchor="start" x="227.01" y="-42.4" font-family="Times-12" font-weight="bold" font-size="14.00">Legend</text>
<polygon fill="#ffffb3" stroke="transparent" points="14,-10 14,-30 34,-30 34,-10 14,-10"/>
<text text-anchor="start" x="37.63" y="-15.4" font-family="Times-12" font-size="14.00"> &#160;Declarations</text>
<polygon fill="#8dd3c7" stroke="transparent" points="127,-10 127,-30 147,-30 147,-10 127,-10"/>
<text text-anchor="start" x="150.73" y="-15.4" font-family="Times-12" font-size="14.00"> &#160;Module</text>
<polygon fill="#80b1d3" stroke="transparent" points="213,-10 213,-30 233,-30 233,-10 213,-10"/>
<text text-anchor="start" x="236.78" y="-15.4" font-family="Times-12" font-size="14.00"> &#160;Bootstrap</text>
<polygon fill="#fdb462" stroke="transparent" points="310,-10 310,-30 330,-30 330,-10 310,-10"/>
<text text-anchor="start" x="333.67" y="-15.4" font-family="Times-12" font-size="14.00"> &#160;Providers</text>
<polygon fill="#fb8072" stroke="transparent" points="406,-10 406,-30 426,-30 426,-10 406,-10"/>
<text text-anchor="start" x="429.73" y="-15.4" font-family="Times-12" font-size="14.00"> &#160;Exports</text>
<g id="clust1" class="cluster">
<title>cluster_PostModule</title>
<polygon fill="none" stroke="black" stroke-dasharray="1,5" points="120,-70 120,-195 376,-195 376,-70 120,-70"/>
</g>
<g id="clust6" class="cluster">
<title>cluster_PostModule_providers</title>
<polygon fill="none" stroke="black" points="238,-78 238,-130 368,-130 368,-78 238,-78"/>
</g>
<g id="clust3" class="cluster">
<title>cluster_PostModule_imports</title>
<polygon fill="none" stroke="black" points="128,-78 128,-130 230,-130 230,-78 128,-78"/>
</g>
<!-- UserModule -->
<g id="node1" class="node">
<title>UserModule</title>
<polygon fill="#8dd3c7" stroke="black" points="221.98,-122 218.98,-126 197.98,-126 194.98,-122 136.02,-122 136.02,-86 221.98,-86 221.98,-122"/>
<text text-anchor="middle" x="179" y="-99.8" font-family="Times,serif" font-size="14.00">UserModule</text>
</g>
<!-- PostModule -->
<g id="node2" class="node">
<title>PostModule</title>
<polygon fill="#8dd3c7" stroke="black" points="282.67,-187 279.67,-191 258.67,-191 255.67,-187 199.33,-187 199.33,-151 282.67,-151 282.67,-187"/>
<text text-anchor="middle" x="241" y="-164.8" font-family="Times,serif" font-size="14.00">PostModule</text>
</g>
<!-- UserModule&#45;&gt;PostModule -->
<g id="edge1" class="edge">
<title>UserModule&#45;&gt;PostModule</title>
<path fill="none" stroke="black" d="M210.58,-122.11C210.58,-122.11 210.58,-140.99 210.58,-140.99"/>
<polygon fill="black" stroke="black" points="207.08,-140.99 210.58,-150.99 214.08,-140.99 207.08,-140.99"/>
</g>
<!-- PostService -->
<g id="node3" class="node">
<title>PostService</title>
<ellipse fill="#fdb462" stroke="black" cx="303" cy="-104" rx="56.76" ry="18"/>
<text text-anchor="middle" x="303" y="-99.8" font-family="Times,serif" font-size="14.00">PostService</text>
</g>
<!-- PostService&#45;&gt;PostModule -->
<g id="edge2" class="edge">
<title>PostService&#45;&gt;PostModule</title>
<path fill="none" stroke="black" d="M264.6,-117.47C264.6,-117.47 264.6,-140.86 264.6,-140.86"/>
<polygon fill="black" stroke="black" points="261.1,-140.86 264.6,-150.86 268.1,-140.86 261.1,-140.86"/>
</g>
</g>
</svg>
