<svg xmlns="http://www.w3.org/2000/svg" xmlns:xlink="http://www.w3.org/1999/xlink" width="672" height="211pt" viewBox="0 0 504 211"><g id="graph0" class="graph" transform="scale(1 1) rotate(0) translate(4 207)"><title>dependencies</title><polygon fill="#fff" stroke="transparent" points="-4 4 -4 -207 500 -207 500 4 -4 4"/><text x="227.01" y="-42.4" font-family="Times-12" font-size="14" font-weight="bold" text-anchor="start">Legend</text><polygon fill="#ffffb3" stroke="transparent" points="14 -10 14 -30 34 -30 34 -10 14 -10"/><text x="37.63" y="-15.4" font-family="Times-12" font-size="14" text-anchor="start">Declarations</text><polygon fill="#8dd3c7" stroke="transparent" points="127 -10 127 -30 147 -30 147 -10 127 -10"/><text x="150.73" y="-15.4" font-family="Times-12" font-size="14" text-anchor="start">Module</text><polygon fill="#80b1d3" stroke="transparent" points="213 -10 213 -30 233 -30 233 -10 213 -10"/><text x="236.78" y="-15.4" font-family="Times-12" font-size="14" text-anchor="start">Bootstrap</text><polygon fill="#fdb462" stroke="transparent" points="310 -10 310 -30 330 -30 330 -10 310 -10"/><text x="333.67" y="-15.4" font-family="Times-12" font-size="14" text-anchor="start">Providers</text><polygon fill="#fb8072" stroke="transparent" points="406 -10 406 -30 426 -30 426 -10 406 -10"/><text x="429.73" y="-15.4" font-family="Times-12" font-size="14" text-anchor="start">Exports</text><g id="clust1" class="cluster"><title>cluster_AppModule</title><polygon fill="none" stroke="#000" stroke-dasharray="1 5" points="16 -70 16 -195 480 -195 480 -70 16 -70"/></g><g id="clust3" class="cluster"><title>cluster_AppModule_imports</title><polygon fill="none" stroke="#000" points="162 -78 162 -130 472 -130 472 -78 162 -78"/></g><g id="clust6" class="cluster"><title>cluster_AppModule_providers</title><polygon fill="none" stroke="#000" points="24 -78 24 -130 154 -130 154 -78 24 -78"/></g><g id="node1" class="node"><title>AuthModule</title><polygon fill="#8dd3c7" stroke="#000" points="463.55 -122 460.55 -126 439.55 -126 436.55 -122 376.45 -122 376.45 -86 463.55 -86 463.55 -122"/><text x="420" y="-99.8" font-family="Times,serif" font-size="14" text-anchor="middle">AuthModule</text></g><g id="node4" class="node"><title>AppModule</title><polygon fill="#8dd3c7" stroke="#000" points="305.66 -187 302.66 -191 281.66 -191 278.66 -187 222.34 -187 222.34 -151 305.66 -151 305.66 -187"/><text x="264" y="-164.8" font-family="Times,serif" font-size="14" text-anchor="middle">AppModule</text></g><g id="edge1" class="edge"><title>AuthModule-&gt;AppModule</title><path fill="none" stroke="#000" d="M420,-122.11C420,-141.34 420,-169 420,-169 420,-169 315.81,-169 315.81,-169"/><polygon fill="#000" stroke="#000" points="315.81 -165.5 305.81 -169 315.81 -172.5 315.81 -165.5"/></g><g id="node2" class="node"><title>PostModule</title><polygon fill="#8dd3c7" stroke="#000" points="357.67 -122 354.67 -126 333.67 -126 330.67 -122 274.33 -122 274.33 -86 357.67 -86 357.67 -122"/><text x="316" y="-99.8" font-family="Times,serif" font-size="14" text-anchor="middle">PostModule</text></g><g id="edge2" class="edge"><title>PostModule-&gt;AppModule</title><path fill="none" stroke="#000" d="M290,-122.11C290,-122.11 290,-140.99 290,-140.99"/><polygon fill="#000" stroke="#000" points="286.5 -140.99 290 -150.99 293.5 -140.99 286.5 -140.99"/></g><g id="node3" class="node"><title>UserModule</title><polygon fill="#8dd3c7" stroke="#000" points="255.98 -122 252.98 -126 231.98 -126 228.98 -122 170.02 -122 170.02 -86 255.98 -86 255.98 -122"/><text x="213" y="-99.8" font-family="Times,serif" font-size="14" text-anchor="middle">UserModule</text></g><g id="edge3" class="edge"><title>UserModule-&gt;AppModule</title><path fill="none" stroke="#000" d="M239.08,-122.11C239.08,-122.11 239.08,-140.99 239.08,-140.99"/><polygon fill="#000" stroke="#000" points="235.58 -140.99 239.08 -150.99 242.58 -140.99 235.58 -140.99"/></g><g id="node5" class="node"><title>AppService</title><ellipse cx="89" cy="-104" fill="#fdb462" stroke="#000" rx="56.74" ry="18"/><text x="89" y="-99.8" font-family="Times,serif" font-size="14" text-anchor="middle">AppService</text></g><g id="edge4" class="edge"><title>AppService-&gt;AppModule</title><path fill="none" stroke="#000" d="M89,-122.11C89,-141.34 89,-169 89,-169 89,-169 212.08,-169 212.08,-169"/><polygon fill="#000" stroke="#000" points="212.08 -172.5 222.08 -169 212.08 -165.5 212.08 -172.5"/></g></g></svg>