<?xml version="1.0" encoding="UTF-8" standalone="no"?>
<!DOCTYPE svg PUBLIC "-//W3C//DTD SVG 1.1//EN"
 "http://www.w3.org/Graphics/SVG/1.1/DTD/svg11.dtd">
<!-- Generated by graphviz version 2.47.0 (20210316.0004)
 -->
<!-- Title: dependencies Pages: 1 -->
<svg width="870pt" height="298pt"
 viewBox="0.00 0.00 870.00 298.00" xmlns="http://www.w3.org/2000/svg" xmlns:xlink="http://www.w3.org/1999/xlink">
<g id="graph0" class="graph" transform="scale(1 1) rotate(0) translate(4 294)">
<title>dependencies</title>
<polygon fill="white" stroke="transparent" points="-4,4 -4,-294 866,-294 866,4 -4,4"/>
<text text-anchor="start" x="410.01" y="-42.4" font-family="Times-12" font-weight="bold" font-size="14.00">Legend</text>
<polygon fill="#ffffb3" stroke="transparent" points="197,-10 197,-30 217,-30 217,-10 197,-10"/>
<text text-anchor="start" x="220.63" y="-15.4" font-family="Times-12" font-size="14.00"> &#160;Declarations</text>
<polygon fill="#8dd3c7" stroke="transparent" points="310,-10 310,-30 330,-30 330,-10 310,-10"/>
<text text-anchor="start" x="333.73" y="-15.4" font-family="Times-12" font-size="14.00"> &#160;Module</text>
<polygon fill="#80b1d3" stroke="transparent" points="396,-10 396,-30 416,-30 416,-10 396,-10"/>
<text text-anchor="start" x="419.78" y="-15.4" font-family="Times-12" font-size="14.00"> &#160;Bootstrap</text>
<polygon fill="#fdb462" stroke="transparent" points="493,-10 493,-30 513,-30 513,-10 493,-10"/>
<text text-anchor="start" x="516.67" y="-15.4" font-family="Times-12" font-size="14.00"> &#160;Providers</text>
<polygon fill="#fb8072" stroke="transparent" points="589,-10 589,-30 609,-30 609,-10 589,-10"/>
<text text-anchor="start" x="612.73" y="-15.4" font-family="Times-12" font-size="14.00"> &#160;Exports</text>
<g id="clust7" class="cluster">
<title>cluster_AuthModule</title>
<polygon fill="none" stroke="black" stroke-dasharray="1,5" points="704,-70 704,-282 854,-282 854,-70 704,-70"/>
</g>
<g id="clust12" class="cluster">
<title>cluster_AuthModule_providers</title>
<polygon fill="none" stroke="black" points="712,-78 712,-130 846,-130 846,-78 712,-78"/>
</g>
<g id="clust10" class="cluster">
<title>cluster_AuthModule_exports</title>
<polygon fill="none" stroke="black" points="719,-222 719,-274 825,-274 825,-222 719,-222"/>
</g>
<g id="clust1" class="cluster">
<title>cluster_AppModule</title>
<polygon fill="none" stroke="black" stroke-dasharray="1,5" points="162,-70 162,-274 428,-274 428,-70 162,-70"/>
</g>
<g id="clust3" class="cluster">
<title>cluster_AppModule_imports</title>
<polygon fill="none" stroke="black" points="308,-78 308,-206 410,-206 410,-78 308,-78"/>
</g>
<g id="clust6" class="cluster">
<title>cluster_AppModule_providers</title>
<polygon fill="none" stroke="black" points="170,-154 170,-206 300,-206 300,-154 170,-154"/>
</g>
<g id="clust13" class="cluster">
<title>cluster_PostModule</title>
<polygon fill="none" stroke="black" stroke-dasharray="1,5" points="8,-70 8,-138 154,-138 154,-70 8,-70"/>
</g>
<g id="clust18" class="cluster">
<title>cluster_PostModule_providers</title>
<polygon fill="none" stroke="black" points="16,-78 16,-130 146,-130 146,-78 16,-78"/>
</g>
<g id="clust19" class="cluster">
<title>cluster_UserModule</title>
<polygon fill="none" stroke="black" stroke-dasharray="1,5" points="436,-146 436,-214 696,-214 696,-146 436,-146"/>
</g>
<g id="clust22" class="cluster">
<title>cluster_UserModule_exports</title>
<polygon fill="none" stroke="black" points="584,-154 584,-206 688,-206 688,-154 584,-154"/>
</g>
<g id="clust24" class="cluster">
<title>cluster_UserModule_providers</title>
<polygon fill="none" stroke="black" points="444,-154 444,-206 576,-206 576,-154 444,-154"/>
</g>
<!-- AuthModule -->
<g id="node1" class="node">
<title>AuthModule</title>
<polygon fill="#8dd3c7" stroke="black" points="815.55,-198 812.55,-202 791.55,-202 788.55,-198 728.45,-198 728.45,-162 815.55,-162 815.55,-198"/>
<text text-anchor="middle" x="772" y="-175.8" font-family="Times,serif" font-size="14.00">AuthModule</text>
</g>
<!-- AppModule -->
<g id="node4" class="node">
<title>AppModule</title>
<polygon fill="#8dd3c7" stroke="black" points="409.66,-266 406.66,-270 385.66,-270 382.66,-266 326.34,-266 326.34,-230 409.66,-230 409.66,-266"/>
<text text-anchor="middle" x="368" y="-243.8" font-family="Times,serif" font-size="14.00">AppModule</text>
</g>
<!-- AuthModule&#45;&gt;AppModule -->
<g id="edge1" class="edge">
<title>AuthModule&#45;&gt;AppModule</title>
<path fill="none" stroke="black" d="M728.31,-180C725.33,-180 723.48,-180 723.48,-180 723.48,-180 723.48,-248 723.48,-248 723.48,-248 419.82,-248 419.82,-248"/>
<polygon fill="black" stroke="black" points="419.82,-244.5 409.82,-248 419.82,-251.5 419.82,-244.5"/>
</g>
<!-- AuthService  -->
<g id="node6" class="node">
<title>AuthService </title>
<polygon fill="#fb8072" stroke="black" points="816.98,-266 727.02,-266 727.02,-230 816.98,-230 816.98,-266"/>
<text text-anchor="middle" x="772" y="-243.8" font-family="Times,serif" font-size="14.00">AuthService </text>
</g>
<!-- AuthModule&#45;&gt;AuthService  -->
<g id="edge5" class="edge">
<title>AuthModule&#45;&gt;AuthService </title>
<path fill="none" stroke="black" stroke-dasharray="5,2" d="M772,-198.22C772,-198.22 772,-219.73 772,-219.73"/>
<polygon fill="black" stroke="black" points="768.5,-219.73 772,-229.73 775.5,-219.73 768.5,-219.73"/>
</g>
<!-- PostModule -->
<g id="node2" class="node">
<title>PostModule</title>
<polygon fill="#8dd3c7" stroke="black" points="399.67,-198 396.67,-202 375.67,-202 372.67,-198 316.33,-198 316.33,-162 399.67,-162 399.67,-198"/>
<text text-anchor="middle" x="358" y="-175.8" font-family="Times,serif" font-size="14.00">PostModule</text>
</g>
<!-- PostModule&#45;&gt;AppModule -->
<g id="edge2" class="edge">
<title>PostModule&#45;&gt;AppModule</title>
<path fill="none" stroke="black" d="M363,-198.22C363,-198.22 363,-219.73 363,-219.73"/>
<polygon fill="black" stroke="black" points="359.5,-219.73 363,-229.73 366.5,-219.73 359.5,-219.73"/>
</g>
<!-- UserModule -->
<g id="node3" class="node">
<title>UserModule</title>
<polygon fill="#8dd3c7" stroke="black" points="401.98,-122 398.98,-126 377.98,-126 374.98,-122 316.02,-122 316.02,-86 401.98,-86 401.98,-122"/>
<text text-anchor="middle" x="359" y="-99.8" font-family="Times,serif" font-size="14.00">UserModule</text>
</g>
<!-- UserModule&#45;&gt;PostModule -->
<g id="edge7" class="edge">
<title>UserModule&#45;&gt;PostModule</title>
<path fill="none" stroke="black" d="M358,-122.01C358,-122.01 358,-151.85 358,-151.85"/>
<polygon fill="black" stroke="black" points="354.5,-151.85 358,-161.85 361.5,-151.85 354.5,-151.85"/>
</g>
<!-- UserModule&#45;&gt;AppModule -->
<g id="edge3" class="edge">
<title>UserModule&#45;&gt;AppModule</title>
<path fill="none" stroke="black" d="M402.23,-113C404.52,-113 405.91,-113 405.91,-113 405.91,-113 405.91,-219.79 405.91,-219.79"/>
<polygon fill="black" stroke="black" points="402.41,-219.79 405.91,-229.79 409.41,-219.79 402.41,-219.79"/>
</g>
<!-- UserService  -->
<g id="node9" class="node">
<title>UserService </title>
<polygon fill="#fb8072" stroke="black" points="679.9,-198 592.1,-198 592.1,-162 679.9,-162 679.9,-198"/>
<text text-anchor="middle" x="636" y="-175.8" font-family="Times,serif" font-size="14.00">UserService </text>
</g>
<!-- UserModule&#45;&gt;UserService  -->
<g id="edge9" class="edge">
<title>UserModule&#45;&gt;UserService </title>
<path fill="none" stroke="black" stroke-dasharray="5,2" d="M401.98,-95C479.78,-95 636,-95 636,-95 636,-95 636,-151.97 636,-151.97"/>
<polygon fill="black" stroke="black" points="632.5,-151.97 636,-161.97 639.5,-151.97 632.5,-151.97"/>
</g>
<!-- AppService -->
<g id="node5" class="node">
<title>AppService</title>
<ellipse fill="#fdb462" stroke="black" cx="235" cy="-180" rx="56.74" ry="18"/>
<text text-anchor="middle" x="235" y="-175.8" font-family="Times,serif" font-size="14.00">AppService</text>
</g>
<!-- AppService&#45;&gt;AppModule -->
<g id="edge4" class="edge">
<title>AppService&#45;&gt;AppModule</title>
<path fill="none" stroke="black" d="M235,-198.22C235,-218.37 235,-248 235,-248 235,-248 316.28,-248 316.28,-248"/>
<polygon fill="black" stroke="black" points="316.28,-251.5 326.28,-248 316.28,-244.5 316.28,-251.5"/>
</g>
<!-- AuthService -->
<g id="node7" class="node">
<title>AuthService</title>
<ellipse fill="#fdb462" stroke="black" cx="779" cy="-104" rx="59.11" ry="18"/>
<text text-anchor="middle" x="779" y="-99.8" font-family="Times,serif" font-size="14.00">AuthService</text>
</g>
<!-- AuthService&#45;&gt;AuthModule -->
<g id="edge6" class="edge">
<title>AuthService&#45;&gt;AuthModule</title>
<path fill="none" stroke="black" d="M772,-122.01C772,-122.01 772,-151.85 772,-151.85"/>
<polygon fill="black" stroke="black" points="768.5,-151.85 772,-161.85 775.5,-151.85 768.5,-151.85"/>
</g>
<!-- PostService -->
<g id="node8" class="node">
<title>PostService</title>
<ellipse fill="#fdb462" stroke="black" cx="81" cy="-104" rx="56.76" ry="18"/>
<text text-anchor="middle" x="81" y="-99.8" font-family="Times,serif" font-size="14.00">PostService</text>
</g>
<!-- PostService&#45;&gt;PostModule -->
<g id="edge8" class="edge">
<title>PostService&#45;&gt;PostModule</title>
<path fill="none" stroke="black" d="M137.8,-104C203.82,-104 303.82,-104 303.82,-104 303.82,-104 303.82,-180 303.82,-180 303.82,-180 306.11,-180 306.11,-180"/>
<polygon fill="black" stroke="black" points="306.11,-183.5 316.11,-180 306.11,-176.5 306.11,-183.5"/>
</g>
<!-- UserService -->
<g id="node10" class="node">
<title>UserService</title>
<ellipse fill="#fdb462" stroke="black" cx="510" cy="-180" rx="58.44" ry="18"/>
<text text-anchor="middle" x="510" y="-175.8" font-family="Times,serif" font-size="14.00">UserService</text>
</g>
<!-- UserService&#45;&gt;UserModule -->
<g id="edge10" class="edge">
<title>UserService&#45;&gt;UserModule</title>
<path fill="none" stroke="black" d="M510,-161.99C510,-139.51 510,-104 510,-104 510,-104 412.27,-104 412.27,-104"/>
<polygon fill="black" stroke="black" points="412.27,-100.5 402.27,-104 412.27,-107.5 412.27,-100.5"/>
</g>
</g>
</svg>
