<?xml version="1.0" encoding="UTF-8" standalone="no"?>
<!DOCTYPE svg PUBLIC "-//W3C//DTD SVG 1.1//EN"
 "http://www.w3.org/Graphics/SVG/1.1/DTD/svg11.dtd">
<!-- Generated by graphviz version 2.47.0 (20210316.0004)
 -->
<!-- Title: dependencies Pages: 1 -->
<svg width="860pt" height="290pt"
 viewBox="0.00 0.00 860.00 290.00" xmlns="http://www.w3.org/2000/svg" xmlns:xlink="http://www.w3.org/1999/xlink">
<g id="graph0" class="graph" transform="scale(1 1) rotate(0) translate(4 286)">
<title>dependencies</title>
<polygon fill="white" stroke="transparent" points="-4,4 -4,-286 856,-286 856,4 -4,4"/>
<text text-anchor="start" x="405.01" y="-42.4" font-family="Times-12" font-weight="bold" font-size="14.00">Legend</text>
<polygon fill="#ffffb3" stroke="transparent" points="192,-10 192,-30 212,-30 212,-10 192,-10"/>
<text text-anchor="start" x="215.63" y="-15.4" font-family="Times-12" font-size="14.00"> &#160;Declarations</text>
<polygon fill="#8dd3c7" stroke="transparent" points="305,-10 305,-30 325,-30 325,-10 305,-10"/>
<text text-anchor="start" x="328.73" y="-15.4" font-family="Times-12" font-size="14.00"> &#160;Module</text>
<polygon fill="#80b1d3" stroke="transparent" points="391,-10 391,-30 411,-30 411,-10 391,-10"/>
<text text-anchor="start" x="414.78" y="-15.4" font-family="Times-12" font-size="14.00"> &#160;Bootstrap</text>
<polygon fill="#fdb462" stroke="transparent" points="488,-10 488,-30 508,-30 508,-10 488,-10"/>
<text text-anchor="start" x="511.67" y="-15.4" font-family="Times-12" font-size="14.00"> &#160;Providers</text>
<polygon fill="#fb8072" stroke="transparent" points="584,-10 584,-30 604,-30 604,-10 584,-10"/>
<text text-anchor="start" x="607.73" y="-15.4" font-family="Times-12" font-size="14.00"> &#160;Exports</text>
<g id="clust7" class="cluster">
<title>cluster_AuthModule</title>
<polygon fill="none" stroke="black" stroke-dasharray="1,5" points="694,-70 694,-274 844,-274 844,-70 694,-70"/>
</g>
<g id="clust12" class="cluster">
<title>cluster_AuthModule_providers</title>
<polygon fill="none" stroke="black" points="702,-78 702,-130 836,-130 836,-78 702,-78"/>
</g>
<g id="clust10" class="cluster">
<title>cluster_AuthModule_exports</title>
<polygon fill="none" stroke="black" points="709,-214 709,-266 815,-266 815,-214 709,-214"/>
</g>
<g id="clust13" class="cluster">
<title>cluster_PostModule</title>
<polygon fill="none" stroke="black" stroke-dasharray="1,5" points="162,-70 162,-198 418,-198 418,-70 162,-70"/>
</g>
<g id="clust18" class="cluster">
<title>cluster_PostModule_providers</title>
<polygon fill="none" stroke="black" points="170,-78 170,-130 300,-130 300,-78 170,-78"/>
</g>
<g id="clust15" class="cluster">
<title>cluster_PostModule_imports</title>
<polygon fill="none" stroke="black" points="308,-78 308,-130 410,-130 410,-78 308,-78"/>
</g>
<g id="clust19" class="cluster">
<title>cluster_UserModule</title>
<polygon fill="none" stroke="black" stroke-dasharray="1,5" points="426,-138 426,-206 686,-206 686,-138 426,-138"/>
</g>
<g id="clust22" class="cluster">
<title>cluster_UserModule_exports</title>
<polygon fill="none" stroke="black" points="574,-146 574,-198 678,-198 678,-146 574,-146"/>
</g>
<g id="clust24" class="cluster">
<title>cluster_UserModule_providers</title>
<polygon fill="none" stroke="black" points="434,-146 434,-198 566,-198 566,-146 434,-146"/>
</g>
<g id="clust1" class="cluster">
<title>cluster_AppModule</title>
<polygon fill="none" stroke="black" stroke-dasharray="1,5" points="8,-138 8,-266 154,-266 154,-138 8,-138"/>
</g>
<g id="clust6" class="cluster">
<title>cluster_AppModule_providers</title>
<polygon fill="none" stroke="black" points="16,-146 16,-198 146,-198 146,-146 16,-146"/>
</g>
<!-- AuthModule -->
<g id="node1" class="node">
<title>AuthModule</title>
<polygon fill="#8dd3c7" stroke="black" points="805.55,-190 802.55,-194 781.55,-194 778.55,-190 718.45,-190 718.45,-154 805.55,-154 805.55,-190"/>
<text text-anchor="middle" x="762" y="-167.8" font-family="Times,serif" font-size="14.00">AuthModule</text>
</g>
<!-- AppModule -->
<g id="node4" class="node">
<title>AppModule</title>
<polygon fill="#8dd3c7" stroke="black" points="145.66,-258 142.66,-262 121.66,-262 118.66,-258 62.34,-258 62.34,-222 145.66,-222 145.66,-258"/>
<text text-anchor="middle" x="104" y="-235.8" font-family="Times,serif" font-size="14.00">AppModule</text>
</g>
<!-- AuthModule&#45;&gt;AppModule -->
<g id="edge1" class="edge">
<title>AuthModule&#45;&gt;AppModule</title>
<path fill="none" stroke="black" d="M718.31,-172C715.33,-172 713.48,-172 713.48,-172 713.48,-172 713.48,-246 713.48,-246 713.48,-246 155.89,-246 155.89,-246"/>
<polygon fill="black" stroke="black" points="155.89,-242.5 145.89,-246 155.89,-249.5 155.89,-242.5"/>
</g>
<!-- AuthService  -->
<g id="node6" class="node">
<title>AuthService </title>
<polygon fill="#fb8072" stroke="black" points="806.98,-258 717.02,-258 717.02,-222 806.98,-222 806.98,-258"/>
<text text-anchor="middle" x="762" y="-235.8" font-family="Times,serif" font-size="14.00">AuthService </text>
</g>
<!-- AuthModule&#45;&gt;AuthService  -->
<g id="edge5" class="edge">
<title>AuthModule&#45;&gt;AuthService </title>
<path fill="none" stroke="black" stroke-dasharray="5,2" d="M762,-190.22C762,-190.22 762,-211.73 762,-211.73"/>
<polygon fill="black" stroke="black" points="758.5,-211.73 762,-221.73 765.5,-211.73 758.5,-211.73"/>
</g>
<!-- PostModule -->
<g id="node2" class="node">
<title>PostModule</title>
<polygon fill="#8dd3c7" stroke="black" points="276.67,-190 273.67,-194 252.67,-194 249.67,-190 193.33,-190 193.33,-154 276.67,-154 276.67,-190"/>
<text text-anchor="middle" x="235" y="-167.8" font-family="Times,serif" font-size="14.00">PostModule</text>
</g>
<!-- PostModule&#45;&gt;AppModule -->
<g id="edge2" class="edge">
<title>PostModule&#45;&gt;AppModule</title>
<path fill="none" stroke="black" d="M193.27,-172C168.44,-172 141.72,-172 141.72,-172 141.72,-172 141.72,-211.78 141.72,-211.78"/>
<polygon fill="black" stroke="black" points="138.22,-211.78 141.72,-221.78 145.22,-211.78 138.22,-211.78"/>
</g>
<!-- UserModule -->
<g id="node3" class="node">
<title>UserModule</title>
<polygon fill="#8dd3c7" stroke="black" points="401.98,-122 398.98,-126 377.98,-126 374.98,-122 316.02,-122 316.02,-86 401.98,-86 401.98,-122"/>
<text text-anchor="middle" x="359" y="-99.8" font-family="Times,serif" font-size="14.00">UserModule</text>
</g>
<!-- UserModule&#45;&gt;PostModule -->
<g id="edge7" class="edge">
<title>UserModule&#45;&gt;PostModule</title>
<path fill="none" stroke="black" d="M337.51,-122.29C337.51,-144.21 337.51,-178 337.51,-178 337.51,-178 286.69,-178 286.69,-178"/>
<polygon fill="black" stroke="black" points="286.69,-174.5 276.69,-178 286.69,-181.5 286.69,-174.5"/>
</g>
<!-- UserModule&#45;&gt;AppModule -->
<g id="edge3" class="edge">
<title>UserModule&#45;&gt;AppModule</title>
<path fill="none" stroke="black" d="M359,-122.08C359,-157.8 359,-234 359,-234 359,-234 155.82,-234 155.82,-234"/>
<polygon fill="black" stroke="black" points="155.82,-230.5 145.82,-234 155.82,-237.5 155.82,-230.5"/>
</g>
<!-- UserService  -->
<g id="node9" class="node">
<title>UserService </title>
<polygon fill="#fb8072" stroke="black" points="669.9,-190 582.1,-190 582.1,-154 669.9,-154 669.9,-190"/>
<text text-anchor="middle" x="626" y="-167.8" font-family="Times,serif" font-size="14.00">UserService </text>
</g>
<!-- UserModule&#45;&gt;UserService  -->
<g id="edge9" class="edge">
<title>UserModule&#45;&gt;UserService </title>
<path fill="none" stroke="black" stroke-dasharray="5,2" d="M402.19,-104C477.76,-104 626,-104 626,-104 626,-104 626,-143.78 626,-143.78"/>
<polygon fill="black" stroke="black" points="622.5,-143.78 626,-153.78 629.5,-143.78 622.5,-143.78"/>
</g>
<!-- AppService -->
<g id="node5" class="node">
<title>AppService</title>
<ellipse fill="#fdb462" stroke="black" cx="81" cy="-172" rx="56.74" ry="18"/>
<text text-anchor="middle" x="81" y="-167.8" font-family="Times,serif" font-size="14.00">AppService</text>
</g>
<!-- AppService&#45;&gt;AppModule -->
<g id="edge4" class="edge">
<title>AppService&#45;&gt;AppModule</title>
<path fill="none" stroke="black" d="M99.9,-189.16C99.9,-189.16 99.9,-211.65 99.9,-211.65"/>
<polygon fill="black" stroke="black" points="96.4,-211.65 99.9,-221.65 103.4,-211.65 96.4,-211.65"/>
</g>
<!-- AuthService -->
<g id="node7" class="node">
<title>AuthService</title>
<ellipse fill="#fdb462" stroke="black" cx="769" cy="-104" rx="59.11" ry="18"/>
<text text-anchor="middle" x="769" y="-99.8" font-family="Times,serif" font-size="14.00">AuthService</text>
</g>
<!-- AuthService&#45;&gt;AuthModule -->
<g id="edge6" class="edge">
<title>AuthService&#45;&gt;AuthModule</title>
<path fill="none" stroke="black" d="M762,-122.22C762,-122.22 762,-143.73 762,-143.73"/>
<polygon fill="black" stroke="black" points="758.5,-143.73 762,-153.73 765.5,-143.73 758.5,-143.73"/>
</g>
<!-- PostService -->
<g id="node8" class="node">
<title>PostService</title>
<ellipse fill="#fdb462" stroke="black" cx="235" cy="-104" rx="56.76" ry="18"/>
<text text-anchor="middle" x="235" y="-99.8" font-family="Times,serif" font-size="14.00">PostService</text>
</g>
<!-- PostService&#45;&gt;PostModule -->
<g id="edge8" class="edge">
<title>PostService&#45;&gt;PostModule</title>
<path fill="none" stroke="black" d="M235,-122.22C235,-122.22 235,-143.73 235,-143.73"/>
<polygon fill="black" stroke="black" points="231.5,-143.73 235,-153.73 238.5,-143.73 231.5,-143.73"/>
</g>
<!-- UserService -->
<g id="node10" class="node">
<title>UserService</title>
<ellipse fill="#fdb462" stroke="black" cx="500" cy="-172" rx="58.44" ry="18"/>
<text text-anchor="middle" x="500" y="-167.8" font-family="Times,serif" font-size="14.00">UserService</text>
</g>
<!-- UserService&#45;&gt;UserModule -->
<g id="edge10" class="edge">
<title>UserService&#45;&gt;UserModule</title>
<path fill="none" stroke="black" d="M444.79,-166C413.48,-166 380.49,-166 380.49,-166 380.49,-166 380.49,-132.27 380.49,-132.27"/>
<polygon fill="black" stroke="black" points="383.99,-132.27 380.49,-122.27 376.99,-132.27 383.99,-132.27"/>
</g>
</g>
</svg>
